<svg xmlns="http://www.w3.org/2000/svg" width="198" height="25" viewBox="0 0 198 25">
    <g fill="none" fill-rule="evenodd">
        <g>
            <g>
                <path fill="#595959" d="M0 18.771l4.962.001c4.959-.002 7.23-2.993 7.23-7.213.002-4.22-2.27-7.212-7.23-7.212H.002V.26h5.186c6.872 0 11.77 4.619 11.77 11.299-.002 6.681-4.867 11.3-11.772 11.3H0V18.77zM29.168.263L33.772.263 33.77 22.86 29.168 22.859zM77.581.264L82.185.265 82.183 22.863 77.58 22.862zM53.342 18.775h-1.767V4.35h1.768c4.965 0 7.232 2.99 7.232 7.211 0 4.223-2.268 7.213-7.233 7.213M53.575.264l-6.6-.001v22.596l1.408.002H53.574c6.901.002 11.767-4.621 11.768-11.3 0-6.68-4.896-11.297-11.767-11.297M94.392 11.564C94.391 4.884 99.482-.001 105.893 0c4.047 0 6.937 1.462 8.939 4.619l-3.515 2.525c-1.053-1.728-2.857-2.957-5.422-2.956-4.042 0-6.773 3.156-6.77 7.375-.004 4.22 2.725 7.447 6.767 7.447 2.894 0 4.506-1.396 5.753-3.324l3.585 2.493c-1.938 3.054-5.029 4.983-9.338 4.983-6.41-.001-11.5-4.92-11.5-11.6M137.17 16.417l-1.607-3.92c-.659-1.595-1.352-4.053-1.352-4.053s-.656 2.46-1.313 4.05l-1.61 3.923h5.882zM134.082.068l.394.001L144.7 22.867l-4.833-.002-1.051-2.557h-9.076l-1.046 2.558-4.437-.001L134.082.068zM153.85 18.414l3.747-2.193c.986 1.627 2.27 2.826 4.538 2.826 1.905 0 3.122-.966 3.123-2.297 0-1.593-1.251-2.158-3.355-3.088l-1.149-.499c-3.322-1.428-5.522-3.225-5.52-7.013-.003-3.49 2.632-6.147 6.738-6.147 2.927 0 5.03 1.03 6.54 3.723l-3.585 2.326c-.788-1.429-1.641-1.995-2.955-1.992-1.35-.001-2.204.863-2.204 1.992 0 1.397.855 1.96 2.828 2.825l1.15.499c3.912 1.694 6.113 3.421 6.11 7.312.003 4.188-3.251 6.478-7.623 6.478-4.272 0-7.03-2.062-8.384-4.752M186.116 4.359L179.736 4.358 179.736.271 197.088.272 197.088 4.359 190.716 4.358 190.715 22.87 186.114 22.87z" transform="translate(-621 -727) translate(621 727)"/>
                <path fill="#06B0D7" d="M0.002 7.086L7.14 12.133 0.001 16.066z" transform="translate(-621 -727) translate(621 727)"/>
                <path fill="#EC1D24" d="M109.692 11.564c0 2.124-1.7 3.85-3.797 3.849-2.096-.002-3.804-1.725-3.804-3.85.003-2.126 1.708-3.842 3.802-3.842 2.097 0 3.801 1.716 3.799 3.843" transform="translate(-621 -727) translate(621 727)"/>
            </g>
        </g>
    </g>
</svg>
